#!OML:ASF F:\VICON\USERDATA\Patient Classification 1\PLAYGROUND\JustinFriday\JustinFriday.ASF
:FULLY-SPECIFIED
:DEGREES
1612
root 13.579 24.6553 48.024 -355.234 -170.452 7.32505
lowerback 19.5283 -4.46837 9.84865
upperback 14.3172 -7.85677 0.353992
thorax 3.93353 -4.59237 -3.92669
lowerneck -14.4168 -1.5841 -16.3851
upperneck 27.0768 1.60162 6.95316
head 11.0257 0.347302 5.65239
rclavicle 6.20208e-014 -2.22639e-014
rhumerus 24.6774 24.3819 -68.4825
rradius 64.508
rwrist 10.5551
rhand -41.5994 -6.0103
rfingers 7.12502
rthumb -14.5092 -35.483
lclavicle 6.20208e-014 -2.22639e-014
lhumerus 18.0375 -11.5962 62.8748
lradius 87.5357
lwrist -17.7271
lhand -42.0146 -43.0221
lfingers 7.12502
lthumb -14.9092 -13.5786
rfemur -5.58741 4.27254 27.495
rtibia 6.41295
rfoot 12.595 -22.2118
rtoes 21.8965
lfemur -53.391 9.98256 -15.0263
ltibia 79.7072
lfoot -33.9021 -17.3856
ltoes 13.3001
1613
root 13.6218 24.5814 48.0473 -355.24 -170.794 7.11603
lowerback 19.7809 -4.39373 9.46503
upperback 14.378 -7.82423 0.216791
thorax 3.88847 -4.61155 -3.84864
lowerneck -14.186 -1.42396 -16.4117
upperneck 26.6481 1.75757 6.90358
head 10.796 0.41865 5.62731
rclavicle 3.65764e-014 -2.54444e-014
rhumerus 24.6008 24.6122 -68.6681
rradius 66.0056
rwrist 10.3418
rhand -42.486 -7.643
rfingers 7.12502
rthumb -15.3633 -37.0522
lclavicle 3.65764e-014 -2.54444e-014
lhumerus 16.742 -12.4911 63.3509
lradius 86.3932
lwrist -18.5438
lhand -41.1848 -44.4484
lfingers 7.12502
lthumb -14.1097 -14.9474
rfemur -6.69559 4.5913 27.3826
rtibia 8.76522
rfoot 10.9891 -21.4715
rtoes 22.5684
lfemur -53.7933 10.4483 -15.1408
ltibia 80.3716
lfoot -34.3221 -17.5723
ltoes 13.3201
1614
root 13.6692 24.5736 48.0631 -355.165 -171.219 6.84839
lowerback 19.7784 -4.28467 9.00494
upperback 14.4544 -7.77684 0.0398123
thorax 3.9884 -4.6148 -3.80311
lowerneck -14.0703 -1.35127 -16.4151
upperneck 26.5966 1.7811 7.09084
head 10.7437 0.451818 5.69556
rclavicle 7.95139e-015 1.11319e-014
rhumerus 24.568 24.5328 -69.0415
rradius 67.2387
rwrist 10.5315
rhand -41.5008 -6.23452
rfingers 7.12502
rthumb -14.4142 -35.714
lclavicle 7.95139e-015 1.11319e-014
lhumerus 15.4429 -13.1897 63.9135
lradius 85.1973
lwrist -19.6954
lhand -40.9892 -45.3483
lfingers 7.12502
lthumb -13.9212 -15.8343
rfemur -6.10842 4.97105 26.9651
rtibia 9.40255
rfoot 1.36005 -21.7343
rtoes 41.3834
lfemur -53.9039 11.0179 -15.3054
ltibia 80.8752
lfoot -35.0044 -17.6081
ltoes 12.7871
1615
root 13.6932 24.5387 48.0778 -355.203 -170.432 6.59402
lowerback 19.5735 -4.72253 9.23294
upperback 14.5692 -8.35304 -0.122368
thorax 4.11144 -4.87063 -4.0202
lowerneck -13.9687 -1.225 -16.62
upperneck 26.4604 1.9233 7.29359
head 10.6462 0.523796 5.81235
rclavicle 1.02573e-013 -4.77083e-014
rhumerus 24.69 24.5215 -69.3626
rradius 68.2358
rwrist 10.7594
rhand -41.5184 -5.30638
rfingers 7.12502
rthumb -14.4312 -34.7846
lclavicle 1.02573e-013 -4.77083e-014
lhumerus 14.1962 -13.7755 64.4432
lradius 83.962
lwrist -21.1524
lhand -41.1284 -45.1619
lfingers 7.12502
lthumb -14.0553 -15.6572
rfemur -6.01306 4.14879 26.7527
rtibia 10.3781
rfoot -0.194324 -19.5494
rtoes 42.9742
lfemur -54.2176 10.2528 -15.516
ltibia 81.4799
lfoot -35.6598 -17.4056
ltoes 12.528
1616
root 13.7317 24.3291 48.1144 -355.515 -169.54 6.51088
lowerback 19.9872 -5.16539 9.43642
upperback 14.6597 -8.90787 -0.167111
thorax 3.92108 -5.15501 -4.02602
lowerneck -13.9207 -1.17811 -16.7011
upperneck 26.457 1.95647 7.45164
head 10.6254 0.549073 5.88763
rclavicle -5.56597e-015 5.24792e-014
rhumerus 24.8205 24.5254 -69.682
rradius 69.1335
rwrist 10.9974
rhand -42.4522 -4.63365
rfingers 7.12502
rthumb -15.3307 -34.0454
lclavicle -5.56597e-015 5.24792e-014
lhumerus 12.9638 -14.2105 65.0479
lradius 82.6868
lwrist -22.872
lhand -41.3317 -44.3047
lfingers 7.12502
lthumb -14.2512 -14.8137
rfemur -7.08096 0.479977 27.746
rtibia 11.2974
rfoot 7.29044 -14.7048
rtoes 28.4559
lfemur -55.4668 9.38436 -15.4855
ltibia 83.0453
lfoot -35.9386 -17.3103
ltoes 12.6619
1617
root 13.7916 24.2311 48.167 -355.649 -168.965 6.77611
lowerback 20.3981 -5.46159 9.6676
upperback 14.648 -9.23277 -0.0870296
thorax 3.66052 -5.325 -3.94461
lowerneck -13.7085 -1.01611 -16.6661
upperneck 26.1759 2.12863 7.38944
head 10.4554 0.631465 5.85648
rclavicle 2.54444e-014 1.43125e-014
rhumerus 24.9034 24.525 -69.9834
rradius 70.2212
rwrist 11.427
rhand -42.6051 -4.93686
rfingers 7.12502
rthumb -15.478 -34.3373
lclavicle 2.54444e-014 1.43125e-014
lhumerus 11.9318 -14.442 65.7069
lradius 81.3242
lwrist -24.5731
lhand -40.7684 -43.0415
lfingers 7.12502
lthumb -13.7085 -13.513
rfemur -7.24448 0.753723 28.3178
rtibia 11.9063
rfoot 4.52298 -15.3144
rtoes 26.1431
lfemur -56.5062 9.15253 -15.0802
ltibia 84.1572
lfoot -35.9967 -17.3978
ltoes 12.0337
1618
root 13.8367 24.1286 48.188 -355.324 -169.344 6.97781
lowerback 20.006 -5.40376 9.73889
upperback 14.6465 -9.17066 -0.142092
thorax 3.84231 -5.26767 -4.10373
lowerneck -13.461 -0.915689 -16.7993
upperneck 26.0138 2.20616 7.54864
head 10.3304 0.678089 5.93166
rclavicle -7.15625e-015 -2.8625e-014
rhumerus 25.0777 24.7052 -70.2381
rradius 71.2473
rwrist 11.4391
rhand -43.0603 -5.76676
rfingers 7.12502
rthumb -15.9164 -35.1327
lclavicle -7.15625e-015 -2.8625e-014
lhumerus 11.4166 -14.6597 66.2104
lradius 79.5736
lwrist -25.748
lhand -39.7025 -41.4088
lfingers 7.12502
lthumb -12.6809 -11.8138
rfemur -7.3019 0.915429 28.8617
rtibia 11.5342
rfoot 3.13725 -15.0181
rtoes 21.9039
lfemur -57.786 9.99658 -14.8533
ltibia 85.4075
lfoot -36.2136 -17.603
ltoes 11.2751
1619
root 13.8805 24.0354 48.2138 -355.274 -169.253 6.60671
lowerback 19.8704 -5.51759 9.44779
upperback 14.7479 -9.39783 -0.344194
thorax 3.98706 -5.38725 -4.14172
lowerneck -13.2805 -0.924278 -17.1026
upperneck 25.9838 2.11363 7.99599
head 10.2825 0.657885 6.13326
rclavicle -1.19271e-014 4.53229e-014
rhumerus 25.3305 24.6668 -70.6698
rradius 72.1255
rwrist 11.9842
rhand -42.5812 -5.90163
rfingers 7.12502
rthumb -15.4551 -35.3038
lclavicle -1.19271e-014 4.53229e-014
lhumerus 11.0591 -14.9172 66.5189
lradius 77.7897
lwrist -26.3935
lhand -38.8222 -39.7011
lfingers 7.12502
lthumb -11.8322 -10.0554
rfemur -7.64559 0.64105 28.7637
rtibia 12.3983
rfoot 1.36966 -14.7674
rtoes 21.2065
lfemur -58.5761 10.0939 -15.2122
ltibia 86.4138
lfoot -36.1422 -17.7839
ltoes 11.2682
1620
root 13.9287 23.9483 48.2489 -355.577 -168.907 6.36243
lowerback 20.1897 -5.75419 9.31354
upperback 14.8884 -9.75909 -0.517239
thorax 3.93115 -5.59147 -4.15117
lowerneck -13.2768 -0.798667 -17.4431
upperneck 26.0231 2.25264 8.46156
head 10.259 0.742319 6.38133
rclavicle -5.56597e-015 6.36111e-015
rhumerus 25.621 24.8834 -70.9714
rradius 73.0594
rwrist 11.5999
rhand -43.1001 -5.83391
rfingers 7.12502
rthumb -15.9548 -35.1968
lclavicle -5.56597e-015 6.36111e-015
lhumerus 10.3758 -14.8715 66.9426
lradius 76.5535
lwrist -27.0375
lhand -37.7031 -37.8081
lfingers 7.12502
lthumb -10.7529 -8.10332
rfemur -7.41491 0.427021 28.7653
rtibia 12.6898
rfoot -0.175433 -14.8434
rtoes 23.7216
lfemur -59.0336 9.91193 -15.3649
ltibia 87.346
lfoot -36.0225 -17.9701
ltoes 10.9902
